<?xml version="1.0" encoding="UTF-8"?> <svg xmlns="http://www.w3.org/2000/svg" width="600" height="400" fill="none" viewBox="0 0 600 400"><path fill="#F0F0F0" d="M66.35 169.803c5.366-37.469 47.22-65.295 83.884-55.71 17.546 4.591 33.433 16.26 51.575 16.358 39.013.173 59.937-50.177 97.725-59.897 26.123-6.716 54.559 9.345 67.459 33.026 12.901 23.68 12.346 52.856 4.448 78.633-20.029 65.132-88.306 111.881-156.258 106.849-67.951-5.033-157.333-54.41-148.588-120.713M477.48 123.725a9.784 9.784 0 00-1.292-.237 9.1 9.1 0 00-2.456.048c-8.89.622-17.225 7.949-18.227 16.914-1.15 10.385 7.76 20.777 18.2 21.23 10.439.454 20.216-9.126 19.972-19.573-.203-8.856-7.564-16.758-16.197-18.382z"></path><path fill="#263238" d="M534 330.016c0 .102-103.312.176-230.709.176s-230.708-.074-230.708-.176c0-.101 103.291-.176 230.742-.176s230.675.082 230.675.176z"></path><path fill="#5F3F6F" d="M418.159 240.723H117.717v30.026h300.442v-30.026z"></path><path fill="#000" d="M418.159 240.723H117.717v30.026h300.442v-30.026z" opacity=".4"></path><path fill="#455A64" d="M353.067 274.538h-88.684v27.806h88.684v-27.806z"></path><path fill="#263238" d="M202.409 261.96v36.758h30.283l12.138-17.591h221.108v-27.124l-263.529 7.957z"></path><path fill="#472F53" d="M200.521 145.564a2.26 2.26 0 0 0-2.34-2.131c-11.969.494-68.787 3.098-80.471 8.714-8.944 4.303-18.74 20.364-25.648 31.183-4.953 7.753-15.893 24.965-18.105 33.767-1.874 7.442-3.004 22.922-2.876 30.601l3.126 40.634H125.7l5.156-13.423a22.663 22.663 0 0 1 21.156-14.525h51.168V192.95l-2.659-47.386z"></path><path fill="#455A64" d="M111.608 156.646c-7.091 6.766-14.208 18.267-19.546 26.684-4.587 7.178-14.303 22.462-17.476 31.676-.06.17-.108.332-.162.501 1.57-.433 3.984-1.319 4.735-2.808 1.13-2.253 2.578-9.972 20.48-39.112 5.44-8.883 10.744-14.079 11.969-16.941z"></path><path fill="#263238" d="M174.068 153.635c-13.166.751-41.71 2.706-50.83 5.804-11.881 4.06-25.216 35.513-25.845 36.894l-8.985 23.003a1 1 0 0 0 .947 1.319h23.227c.879 0 1.752-.156 2.577-.46l61.087-22.773a7.066 7.066 0 0 0 4.594-6.617v-30.763a6.417 6.417 0 0 0-6.772-6.407z"></path><path fill="#455A64" d="M91 218.395s8.605-19.302 11.501-25.628c4.371-9.553 14.58-29.092 21.474-31.196 6.34-1.901 24.566-4.215 50.222-5.683h.243a4.163 4.163 0 0 1 4.154 4.161v31.46a3.817 3.817 0 0 1-2.476 3.565l-45.134 5.568a12.572 12.572 0 0 0-8.964 5.575l-7.821 11.928a4.13 4.13 0 0 1-1.434.257l-21.766-.007z"></path><path fill="#263238" d="M129.347 200.988l-15.345 17.09 8.491-56.744 2.125-.73-4.181 42.034a1.236 1.236 0 0 0 1.07 1.343c.21.028.424.001.621-.077l7.219-2.916z"></path><path fill="#EBEBEB" d="M70.073 251.642c-.054-.737.197-1.353.575-1.353l8.227-.758c.677-.067 1.306 1.211 1.387 2.707l.372 6.312c.061 1.015-.243 1.874-.676 1.948l-8.39 1.448c-.378.068-.744-.494-.798-1.238l-.697-9.066z"></path><path fill="#263238" d="M129.347 281.133h-59.28v23.768h59.28v-23.768zM168.919 329.726c17.9-.688 31.853-15.756 31.165-33.656-.687-17.9-15.755-31.853-33.655-31.165-17.9.687-31.853 15.756-31.166 33.655.688 17.9 15.756 31.854 33.656 31.166z"></path><path fill="#263238" d="M135.267 296.756a32.433 32.433 0 1 0 64.862 1.021v-.081l-64.862-.94z"></path><path fill="#FAFAFA" d="M144.922 296.978a22.767 22.767 0 0 0 13.748 21.246 22.778 22.778 0 0 0 24.889-4.574 22.776 22.776 0 0 0 5.297-24.745 22.778 22.778 0 0 0-20.836-14.362 22.775 22.775 0 0 0-23.098 22.435z"></path><path fill="#E0E0E0" d="M168.019 274.543a22.776 22.776 0 0 0-23.098 22.435l45.54.677a22.775 22.775 0 0 0-6.435-16.203 22.775 22.775 0 0 0-16.007-6.909z"></path><path fill="#263238" d="M153.825 297.107a13.878 13.878 0 002.225 7.74 13.873 13.873 0 0021.308 2.409 13.866 13.866 0 00-1.795-21.368 13.873 13.873 0 00-17.535 1.474 13.864 13.864 0 00-4.203 9.745zM104.781 174.236h-2.645a5.399 5.399 0 00-5.4 5.399v21.467a5.399 5.399 0 005.4 5.399h2.645a5.399 5.399 0 005.399-5.399v-21.467a5.399 5.399 0 00-5.399-5.399z"></path><path fill="#5F3F6F" d="M178.161 229.322s.189 0 .528-.081a3.724 3.724 0 0 0 1.393-.555 3.522 3.522 0 0 0 1.414-1.84c.153-.471.215-.967.183-1.462a3.539 3.539 0 0 0-.413-1.569 3.498 3.498 0 0 0-3.044-1.861h-14.695a3.472 3.472 0 0 0-3.444 3.079c-.106.803.043 1.62.426 2.334a3.478 3.478 0 0 0 1.692 1.502 5.276 5.276 0 0 0 2.205.27h6.056l5.636.054h1.535c.177-.003.354.01.528.041a4.65 4.65 0 0 1-.528.034h-1.535l-5.636.054h-7.199a4.053 4.053 0 0 1-1.184-.271 3.811 3.811 0 0 1-1.854-1.637 4.197 4.197 0 0 1-.473-2.537 3.808 3.808 0 0 1 3.775-3.383h14.695a3.755 3.755 0 0 1 3.68 3.714 4.127 4.127 0 0 1-.223 1.523 3.682 3.682 0 0 1-1.522 1.894 3.515 3.515 0 0 1-1.455.508 2.347 2.347 0 0 1-.541.189z"></path><path fill="#455A64" d="M132.047 305.098l-5.413-.393c1.414-19.383 3.484-30.98 6.333-35.452 5.466-8.592 10.899-10.148 16.914-11.17 5.602-.954 11.251-.73 16.718-.507l1.353.054c11.285.44 34.924.047 35.181.047l.088 5.413c-.237 0-24.025.399-35.459-.048l-1.353-.054c-5.189-.203-10.547-.426-15.595.44-5.378.913-8.957 1.962-13.274 8.741-1.306 2.023-3.755 9.053-5.493 32.929z"></path><path fill="#5F3F6F" d="M472.568 84.294H206.015V261.77h266.553V84.294z"></path><path fill="#F0F0F0" d="M335.72 181.1c.34-1.924 1.007-3.527 2.002-4.809.996-1.282 2.654-2.65 4.975-4.103 1.82-1.137 3.108-2.125 3.863-2.963.762-.878 1.237-1.847 1.424-2.908l.124-.706c.319-1.807-.057-3.351-1.126-4.633-1.031-1.275-2.606-2.099-4.727-2.473-2.277-.402-4.168-.128-5.672.822-1.464.956-2.383 2.495-2.757 4.616l-.332 1.884-4.065-.716.343-1.944c.568-3.22 2.039-5.593 4.413-7.117 2.375-1.525 5.29-1.983 8.745-1.374 3.299.582 5.813 1.936 7.544 4.063 1.737 2.088 2.353 4.566 1.848 7.432l-.125.707a8.892 8.892 0 0 1-1.957 4.21c-1.028 1.236-2.564 2.484-4.608 3.743-2.083 1.252-3.559 2.389-4.427 3.41-.823.989-1.369 2.249-1.639 3.78l-.415 2.356-3.888-.685.457-2.592zm-.303 13.43c-.824-.146-1.467-.522-1.926-1.129-.414-.64-.548-1.372-.403-2.197.146-.825.519-1.447 1.119-1.868.647-.453 1.383-.606 2.207-.461.864.152 1.503.548 1.917 1.188.459.608.616 1.324.471 2.148-.145.825-.541 1.464-1.188 1.917-.601.42-1.333.554-2.197.402z"></path><path fill="#263238" d="M408.578 329.688c17.899-.716 31.829-15.806 31.113-33.704-.716-17.899-15.806-31.829-33.705-31.113-17.898.716-31.828 15.806-31.112 33.705.716 17.898 15.806 31.828 33.704 31.112z"></path><path fill="#263238" d="M374.838 296.756v.088a32.433 32.433 0 0 0 55.028 23.727 32.433 32.433 0 0 0 9.828-22.794v-.081l-64.856-.94z"></path><path fill="#FAFAFA" d="M384.493 296.978a22.766 22.766 0 1 0 45.527.66 22.766 22.766 0 0 0-45.527-.66z"></path><path fill="#E0E0E0" d="M407.591 274.543a22.779 22.779 0 0 0-16.196 6.433 22.768 22.768 0 0 0-6.902 16.002l45.533.677a22.776 22.776 0 0 0-6.428-16.205 22.774 22.774 0 0 0-16.007-6.907z"></path><path fill="#263238" d="M393.423 297.107a13.871 13.871 0 0 0 23.534 10.149 13.872 13.872 0 0 0-1.796-21.368 13.873 13.873 0 0 0-17.535 1.474 13.872 13.872 0 0 0-4.203 9.745z"></path><path fill="#455A64" d="M364.629 306.193s-4.939-46.006 42.731-46.006c43.977 0 43.003 39.565 42.583 45.688h-6.894s3.512-38.997-35.689-38.997c-39.2 0-35.79 39.789-35.79 39.789s-2.895-.142-6.941-.474z"></path><path fill="#F0F0F0" fill-rule="evenodd" d="M339.291 212.618c21.863 0 39.587-17.723 39.587-39.586s-17.724-39.586-39.587-39.586c-21.863 0-39.586 17.723-39.586 39.586s17.723 39.586 39.586 39.586zm0 3.183c23.621 0 42.769-19.148 42.769-42.769s-19.148-42.769-42.769-42.769c-23.62 0-42.769 19.148-42.769 42.769s19.149 42.769 42.769 42.769z" clip-rule="evenodd"></path><path fill="#455A64" d="M507.256 311.769l5.764 8.674 2.591 8.172a1.067 1.067 0 0 0 .556.647 1.05 1.05 0 0 0 .851.03 1.047 1.047 0 0 0 .677-.731c.528-2.138 2.429-10.013 1.976-10.628-.454-.616-5.481-9.547-5.481-9.547l-6.934 3.383z"></path><path fill="#fff" d="M517.018 329.286l2.246-11.948.237.372c.206.321.29.705.237 1.083-.142 1.008-.602 3.788-2.03 9.742a1.056 1.056 0 01-.676.751h-.014zM515.658 315.639a.68.68 0 00.298.806.62.62 0 00.46.014.62.62 0 00.345-.305.679.679 0 00-.325-.853.638.638 0 00-.798.399" opacity=".6"></path><path fill="#263238" d="M516.592 324.171a3.075 3.075 0 00-1.204-.196 3.24 3.24 0 00-1.137.446s.047-.155.237-.318c.252-.202.558-.326.879-.358.321-.038.647.021.934.169.216.115.311.236.291.257zM516.713 325.747a7.154 7.154 0 00-1.021.115c-.32.121-.629.266-.927.433-.054-.033.25-.487.866-.676a1.174 1.174 0 011.082.128zM516.809 321.918a10.303 10.303 0 00-1.59.075 9.728 9.728 0 00-1.495.521 2.325 2.325 0 011.454-.745 2.42 2.42 0 011.631.149zM515.273 319.137c0 .068-.609.169-1.252.548s-1.055.846-1.11.805a2.09 2.09 0 01.995-1.001 2.03 2.03 0 011.367-.352zM513.642 316.546c-.474.118-.929.3-1.353.541-.37.299-.7.645-.981 1.029 0 0 0-.176.128-.426a2.34 2.34 0 011.726-1.178c.311-.027.48.007.48.034zM512.025 316.587a1.043 1.043 0 01-.216-.325 2.639 2.639 0 01-.291-1.042 1.23 1.23 0 01.128-.765.432.432 0 01.46-.182.722.722 0 01.393.311 1.514 1.514 0 01-.372 1.888 1.753 1.753 0 01-1.942.142.581.581 0 01-.291-.406.413.413 0 01.25-.427c.247-.09.513-.113.771-.067.361.04.711.143 1.036.304.12.051.231.125.324.217a4.947 4.947 0 00-1.353-.359 1.39 1.39 0 00-.676.075.218.218 0 00-.11.091.218.218 0 00-.032.139.414.414 0 00.209.257 1.576 1.576 0 001.685-.142 1.351 1.351 0 00.338-1.597.496.496 0 00-.264-.23.233.233 0 00-.257.095 1.059 1.059 0 00-.121.676c.037.464.149.919.331 1.347z"></path><path fill="#455A64" d="M501.775 316.729l-.677 8.707s8.64 2.957 8.674 4.58l-16.914-.04.474-13.606 8.443.359z"></path><path fill="#fff" d="M495.909 324.496a.674.674 0 00-.507.765.673.673 0 00.279.404c.14.096.311.135.479.11a.728.728 0 00.534-.819.676.676 0 00-.846-.446M492.878 329.976l.048-1.353 16.352.608a1.193 1.193 0 01.623.927l-17.023-.182z" opacity=".6"></path><path fill="#263238" d="M501.39 325.362c0 .081-.42.101-.839.352-.42.25-.677.588-.718.554-.04-.034.068-.514.576-.805.507-.291 1.001-.176.981-.101zM503.135 326.167c0 .081-.345.203-.642.541-.298.339-.386.677-.474.677-.088 0-.115-.474.264-.886.379-.413.852-.413.852-.332zM504.062 328.318c-.074 0-.176-.406.054-.853.23-.446.623-.608.677-.534.054.074-.217.304-.399.677-.183.372-.251.71-.332.71zM501.322 323.359c-.041.074-.413-.054-.88-.041-.466.014-.838.142-.879.075-.041-.068.318-.359.873-.366.554-.006.927.271.886.332z"></path><path fill="#000" d="M501.64 318.454l-.115 1.549-8.315-.406.047-1.4 8.383.257z" opacity=".3"></path><path fill="#263238" d="M501.424 321.6a1.59 1.59 0 0 1-.846-.034 4.113 4.113 0 0 1-.88-.311 3.447 3.447 0 0 1-.473-.278.988.988 0 0 1-.251-.209.372.372 0 0 1 0-.44.47.47 0 0 1 .373-.176c.105.005.21.023.311.054.179.053.353.121.521.203.281.142.539.327.764.548.379.379.501.677.467.677-.034 0-.216-.237-.602-.555a3.584 3.584 0 0 0-.744-.453 2.477 2.477 0 0 0-.481-.17c-.176-.054-.324-.061-.379 0-.054.061 0 .041 0 .095.05.062.109.114.176.156.142.098.289.188.44.27.257.142.527.259.805.352.272.073.539.163.799.271z"></path><path fill="#263238" d="M501.309 321.714a1.356 1.356 0 0 1-.19-.825c0-.502.133-.994.386-1.427a.674.674 0 0 1 .562-.413.416.416 0 0 1 .345.25c.035.103.06.21.074.318a1.927 1.927 0 0 1-.419 1.434c-.352.42-.677.508-.677.481 0-.027.271-.19.541-.602.152-.239.253-.506.298-.785.024-.164.024-.33 0-.494 0-.183-.075-.325-.149-.311-.074.013-.23.122-.304.264-.09.144-.167.295-.23.453a3.062 3.062 0 0 0-.197.839c-.067.494.007.805-.04.818z"></path><path fill="#263238" d="M507.959 245.101s3.106 6.366 3.917 10.906c.23 1.285-8.89 66.547-8.89 66.547l-10.784-.406 5.054-60.729-1.8-12.178 12.503-4.14z"></path><path fill="#263238" d="M481.762 249.045a96.775 96.775 0 0 0 .677 13.193c.798 6.4 2.625 13.687 3.22 17.76 1.313 9.012 3.897 10.717 3.897 10.717l20.69 26.473 8.118-7.3-18.267-29.18s-4.858-32.38-4.688-31.507c.169.872-13.647-.156-13.647-.156z"></path><path fill="#455A64" d="M489.99 291.107c.058.097.124.19.196.277l.588.758 2.172 2.801c1.834 2.388 4.33 5.663 7.097 9.283 2.767 3.619 5.284 6.907 7.152 9.248a123.23 123.23 0 002.232 2.754l.623.73c.069.09.146.174.23.251a1.685 1.685 0 00-.197-.278l-.588-.764-2.172-2.794-7.097-9.29c-2.76-3.633-5.284-6.907-7.151-9.241a133.625 133.625 0 00-2.226-2.754l-.629-.738a1.706 1.706 0 00-.23-.243zM487.682 254.004a2.241 2.241 0 01-.291 1.035 6.624 6.624 0 01-3.694 3.464 2.493 2.493 0 01-1.048.223 11.642 11.642 0 002.997-1.847 11.424 11.424 0 002.036-2.875zM510.009 250.311a2.83 2.83 0 01-1.582.224 2.83 2.83 0 01-1.449-.671c.047-.088.676.203 1.502.318.825.115 1.508.034 1.529.129zM498.366 259.309c.034.142.059.287.074.433.041.311.088.724.156 1.244.121 1.117.297 2.707.521 4.642.419 3.978.994 9.472 1.657 15.791v-.075l2.997 4.79 10.413 16.759c1.305 2.131 2.368 3.863 3.119 5.101l.811 1.38c.105.158.193.326.264.501a4.05 4.05 0 01-.324-.467l-.893-1.353-3.214-5.04c-2.706-4.297-6.407-10.189-10.5-16.698l-2.991-4.797v-.04c-.609-6.299-1.15-11.82-1.536-15.805l-.419-4.655c-.041-.521-.075-.933-.095-1.251a1.872 1.872 0 01-.04-.46zM495.219 202.437l6.454 2.07.488 13.687s3.491 16.082 4.248 18.112a41.364 41.364 0 011.969 7.496s-1.245 9.079-10.317 10.148c-9.073 1.069-17.517-4.14-17.517-4.14s-3.024-13.531-5.798-25.669c-2.638-11.549-.494-18.436-.494-18.436l9.939-3.573 11.028.305z"></path><path fill="#FAFAFA" d="M500.015 210.055l-5.931.717.184 1.525 5.931-.718-.184-1.524z"></path><path fill="#263238" d="M501.444 193.682a1.353 1.353 0 00-1.441-1.123 1.13 1.13 0 00-.142-1.894 2.325 2.325 0 00-.481-3.085l-6.813 9.397a4.96 4.96 0 003.755 1.028 10.028 10.028 0 003.755-1.353c.317-.136.579-.374.744-.676.129-.318-.054-.778-.405-.785a1.353 1.353 0 001.028-1.509zM484.523 188.546a.65.65 0 00-.383.025.651.651 0 00-.411.605.644.644 0 00.117.365 1.146 1.146 0 00-1.071.457 1.141 1.141 0 00-.106 1.16 2.194 2.194 0 00-1.353.372 1.275 1.275 0 00-.542 1.265.915.915 0 001.083.677 1.255 1.255 0 00.068 1.353.803.803 0 00.608.3.811.811 0 00.623-.266.973.973 0 001.211 1.454 1.059 1.059 0 00.469 1.154 1.06 1.06 0 001.243-.085l-1.556-8.836z"></path><path fill="#FFBE9D" d="M484.942 186.747l-.297 16.637a5.175 5.175 0 0 0 4.736 5.243 5.183 5.183 0 0 0 3.904-1.298 5.164 5.164 0 0 0 1.725-3.736c0-1.583.054-2.882.054-2.882s4.059-.271 4.458-4.262c.237-2.314.298-7.591.312-11.644a5.262 5.262 0 0 0-4.804-5.264l-2.415-.209a7.448 7.448 0 0 0-5.402 2.087 7.431 7.431 0 0 0-2.271 5.328z"></path><path fill="#EB996E" d="M495.05 200.711a9.688 9.688 0 0 1-5.074-2.029s1.028 3.024 5.054 3.017l.02-.988z"></path><path fill="#263238" d="M498.703 188.872c-.074.067-.48-.291-1.096-.345-.616-.054-1.089.216-1.15.135-.061-.081.054-.169.264-.291a1.548 1.548 0 011.793.169c.176.156.23.298.189.332zM492.202 189.136a.575.575 0 01-.602.527.537.537 0 01-.393-.165.55.55 0 01-.155-.396.571.571 0 01.602-.528.559.559 0 01.392.165.564.564 0 01.156.397zM498.156 189.676a.579.579 0 01-.991.356.558.558 0 01-.153-.397.572.572 0 01.193-.388.562.562 0 01.409-.139.525.525 0 01.393.168.55.55 0 01.149.4zM492.723 188.344c-.075.067-.481-.291-1.096-.345-.616-.055-1.096.216-1.157.135-.061-.081.054-.169.264-.291a1.566 1.566 0 011.799.162c.176.163.23.305.19.339zM494.55 193.1a4.278 4.278 0 011.035-.094c.162 0 .311 0 .345-.122a.781.781 0 00-.061-.474c-.115-.399-.237-.805-.359-1.238a19.996 19.996 0 01-.764-3.22c.422 1.02.764 2.072 1.021 3.146.115.439.23.852.339 1.245a.935.935 0 010 .622.408.408 0 01-.278.21c-.09.009-.18.009-.27 0a4.056 4.056 0 01-1.008-.075zM492.703 193.364c.101 0 .047.677.575 1.197.528.521 1.245.515 1.245.603 0 .088-.176.121-.474.101a1.679 1.679 0 01-1.042-.473 1.443 1.443 0 01-.44-.995c0-.284.095-.44.136-.433zM493.061 186.355c-.081.162-.676 0-1.414.054-.737.054-1.353.169-1.414 0-.061-.169.081-.223.332-.365.33-.174.696-.267 1.069-.271.373-.011.744.066 1.082.223.251.142.372.284.345.359zM498.778 187.099c-.122.135-.534-.048-1.042-.102-.507-.054-.947 0-1.035-.142-.088-.142.041-.21.244-.325a1.512 1.512 0 011.671.196c.169.19.216.312.162.373z"></path><path fill="#FFBE9D" d="M486.025 189.866c-.068-.034-2.707-1.056-2.835 1.691-.129 2.747 2.632 2.334 2.645 2.253.014-.081.19-3.944.19-3.944z"></path><path fill="#EB996E" d="M485.058 192.721s-.055.034-.136.068a.513.513 0 0 1-.358 0 1.177 1.177 0 0 1-.487-1.089c.008-.235.066-.466.169-.677a.58.58 0 0 1 .385-.345.236.236 0 0 1 .271.149v.135s.061-.04.047-.156a.298.298 0 0 0-.101-.175.356.356 0 0 0-.257-.088.674.674 0 0 0-.521.399 1.598 1.598 0 0 0-.21.758 1.246 1.246 0 0 0 .629 1.224c.073.024.149.032.225.024a.53.53 0 0 0 .215-.071c.115-.088.135-.149.129-.156z"></path><path fill="#263238" d="M484.51 189.622a1.444 1.444 0 0 1 1.258.792c.142.406.142.852.284 1.258s.514.799.941.731a.836.836 0 0 0 .629-.568c.084-.288.112-.589.081-.887-.047-1.292-.203-2.584-.142-3.87a6.676 6.676 0 0 1 1.137-3.653 3.606 3.606 0 0 1 3.382-1.515c.846.142 1.584.676 2.416.852a3.382 3.382 0 0 0 2.862-.677c.101-.081.554-.324.554-.324a1.618 1.618 0 0 0-.216-.873c-1.536-1.698-4.52-2.402-6.766-2.03a8.012 8.012 0 0 0-5.608 3.728c-1.137 1.996-1.11 4.905-.772 7.05"></path><path fill="#263238" d="M500.32 184.122a2.606 2.606 0 0 1-2.293 1.218 7.248 7.248 0 0 1-2.639-.629 21.454 21.454 0 0 0-4.059-.968c-.136 0-.298 0-.359-.142s.088-.331.237-.433c1.279-.825 4.208-1.143 5.73-1.076a4.47 4.47 0 0 1 3.762 2.206"></path><path fill="#455A64" d="M499.921 184.21a4.894 4.894 0 0 0-3.207-1.813 13.236 13.236 0 0 0-12.34 6.184 17.101 17.101 0 0 1-.365-3.546c.067-.818.987-5.622 6.089-6.704.02-.014 7.787-2.24 9.823 5.879z"></path><path fill="#455A64" d="M484.909 187.546a19.754 19.754 0 0 1 6.637-5.318 38.497 38.497 0 0 1 9.472-2.916 6.04 6.04 0 0 1 2.557-.047 2.29 2.29 0 0 1 1.739 1.705c.169 1.055-1.813 2.496-2.706 3.044-.898.49-1.822.931-2.768 1.319 0 0 .197-1.914-2.848-2.584-4.161-.913-12.083 4.797-12.083 4.797z"></path><path fill="#263238" d="M504.109 179.4a8.274 8.274 0 0 0-.872-.136c-.809-.03-1.618.024-2.416.163a36.742 36.742 0 0 0-7.706 2.185 21.306 21.306 0 0 0-6.765 4.195 9.79 9.79 0 0 0-1.543 1.854c-.298.487-.413.784-.44.771-.027-.014 0-.081.054-.223.074-.212.165-.418.271-.616a8.404 8.404 0 0 1 1.488-1.962 19.928 19.928 0 0 1 6.807-4.344 32.842 32.842 0 0 1 7.801-2.111c.816-.114 1.642-.13 2.462-.047.233.018.461.073.677.162.122.061.189.095.182.109z"></path><path fill="#263238" d="M500.382 185.563a1.221 1.221 0 00.112-1.222 1.215 1.215 0 00-1.012-.693 1.12 1.12 0 00.624-.634 1.12 1.12 0 00-.042-.888 1.407 1.407 0 00-1.597-.623 1.965 1.965 0 00-1.252 1.272 1.323 1.323 0 00-1.786-.386c-.192.119-.35.284-.46.481a.709.709 0 00-.859-.446c-.343.113-.657.3-.92.548-.265.25-.605.405-.968.439l-.237.102a1.5 1.5 0 001.908.568 1.058 1.058 0 00.756 1.031 1.065 1.065 0 001.2-.442 1.061 1.061 0 00.677.744 1.06 1.06 0 00.994-.162 1.35 1.35 0 001.528.843c.207-.042.402-.131.569-.262a2.274 2.274 0 01.257 1.861c.223-.05.428-.161.591-.321a1.226 1.226 0 00.299-1.257 1.222 1.222 0 00-.382-.553zM488.941 184.886c-.944.419-1.85.919-2.706 1.495a5.891 5.891 0 00-1.996 2.335l1.353 1.292c.372.122.676.25.961 0 .146-.128.259-.29.328-.471a1.18 1.18 0 00.064-.571.998.998 0 00.983-.343 1.009 1.009 0 00.147-1.031.771.771 0 00.569-.945.796.796 0 00-.197-.354.78.78 0 00.718-.963.789.789 0 00-.224-.39v-.054z"></path><path fill="#455A64" d="M501.674 204.506s3.998 2.402 5.202 4.54c1.205 2.138 7.605 17.74 7.341 20.297-.264 2.557-6.272 4.134-6.272 4.134l-6.271-8.119 2.868-1.712-2.868-5.527v-13.613z"></path><path fill="#FFBE9D" d="M507.959 233.458s-14.532 2.909-19.81-3.383l1.529-5.311s9.601 2.273 12.605 1.299l5.676 7.395z"></path><path fill="#263238" d="M509.461 220.548c.054.108-1.705.846-3.538 2.246-1.834 1.401-2.991 2.916-3.086 2.842.165-.379.394-.727.677-1.029a13.419 13.419 0 0 1 2.158-2.09c.8-.609 1.665-1.129 2.578-1.55a3.83 3.83 0 0 1 1.211-.419z"></path><path fill="#263238" d="M504.8 223.451a14.94 14.94 0 01-1.306-2.591 19.144 19.144 0 01-1.191-2.646 8.81 8.81 0 011.509 2.497c.456.862.788 1.785.988 2.74zM502.161 216.881a11.078 11.078 0 00-.352-2.26c-.123-.757-.32-1.5-.589-2.219.163 1.521.478 3.021.941 4.479z"></path><path fill="#455A64" d="M476.073 206.536c.277.291 4.269 2.936 5.602 7.442a722.38 722.38 0 0 0 2.801 9.208l5.202.677-2.936 12.002a14.019 14.019 0 0 1-9.736-6.4 64.808 64.808 0 0 1-5.602-12.78s.44-14.574 4.669-10.149z"></path><path fill="#FFBE9D" d="M487.892 223.627s-2.205-4.939-2.503-5.007c-.298-.067-4.553-1.562-4.553-1.562a1.53 1.53 0 0 0 0 1.075l-1.536.197s.23.94.751 1.069l-.555.493c.278.367.634.667 1.042.88a1.13 1.13 0 0 0 1.008 0s-.189.352.677.907c.866.554 2.374 1.353 2.374 1.353l3.295.595z"></path><path fill="#EB996E" d="M484.604 223.058s-1.508-.825-2.374-1.353c-.751-.474-.731-.798-.677-.893a1.2 1.2 0 0 1-.988 0 3.23 3.23 0 0 1-1.048-.886l.507-.535c-.507-.149-.731-1.035-.737-1.076l1.529-.196a1.595 1.595 0 0 1 0-1.069c.04 0 4.269 1.502 4.56 1.563.291.061 2.415 4.811 2.51 5.013l-3.282-.568zm-3.761-4.932l-1.536.196c0 .108.264.934.744 1.056l-.561.494c.272.362.624.658 1.028.866a1.142 1.142 0 0 0 1.001 0v.04s-.176.352.677.893c.852.541 2.32 1.353 2.375 1.353l3.267.575c-.771-1.711-2.266-4.932-2.489-4.979-.224-.047-4.317-1.482-4.547-1.563-.121.349-.106.73.041 1.069z"></path><path fill="#EB996E" d="M480.971 218.146c.899.436 1.831.801 2.787 1.089.393.142.778.244 1.083.393.272.129.495.342.636.609.257.46.351.791.392.778a2.028 2.028 0 00-.244-.86 1.565 1.565 0 00-.676-.717 9.763 9.763 0 00-1.11-.419 20.659 20.659 0 00-2.868-.873zM479.976 219.391c.237.141.499.235.772.278.487.135 1.177.243 1.908.439a4.9 4.9 0 011.725.812c.392.305.561.568.595.548a1.485 1.485 0 00-.487-.676 4.307 4.307 0 00-1.773-.914c-.751-.203-1.447-.284-1.935-.372a3.705 3.705 0 00-.805-.115zM483.88 221.651a1.797 1.797 0 00-1.021-.677 1.913 1.913 0 00-1.232-.115c0 .075.541.109 1.157.332.616.223 1.056.514 1.096.46z"></path><path fill="#FFBE9D" d="M489.232 225.142l13.118-6.617 2.402 4.892s-12.09 11.982-17.753 11.826"></path><path fill="#263238" d="M481.262 211.272c.019.331.078.658.176.975.142.588.345 1.4.588 2.293.244.893.474 1.705.677 2.287.075.319.188.629.338.92a4.475 4.475 0 00-.176-.967 89.192 89.192 0 00-.588-2.301c-.244-.899-.474-1.698-.677-2.273a4.33 4.33 0 00-.338-.934zM481.83 227.558c.041 0 .156-.603.46-1.543a5.03 5.03 0 01.785-1.516 2.816 2.816 0 011.685-1.048c.7-.032 1.402.047 2.077.237l1.718.345c.216.028.427.083.63.162a.62.62 0 01.318.325.509.509 0 010 .392s.182-.108.108-.419a.676.676 0 00-.345-.413c-.215-.1-.443-.17-.677-.21l-1.711-.392a6.358 6.358 0 00-2.159-.257 2.976 2.976 0 00-1.833 1.17 4.883 4.883 0 00-.771 1.597 10.05 10.05 0 00-.264 1.164c-.027.133-.034.27-.021.406zM480.024 224.919a5.499 5.499 0 011.414-1.637 8.64 8.64 0 012.029-.88 1.449 1.449 0 00-.676.054 3.969 3.969 0 00-1.468.636 3.514 3.514 0 00-1.076 1.198 1.294 1.294 0 00-.223.629zM471.404 216.685s0 .088.068.257.142.426.243.717c.224.677.528 1.543.907 2.632.379 1.089.839 2.443 1.489 3.863a45.895 45.895 0 002.34 4.499 15.31 15.31 0 003.268 3.884 14.142 14.142 0 003.518 2.199 10.433 10.433 0 003.464.825h.264s-.358-.04-1.008-.155a11.274 11.274 0 01-2.638-.819 14.968 14.968 0 01-6.651-6.042c-.92-1.536-1.664-3.085-2.348-4.472-.683-1.387-1.123-2.706-1.536-3.829-.412-1.123-.73-1.996-.974-2.612l-.284-.676a1.405 1.405 0 00-.122-.271zM475.166 206.821c0 .067 1.001.433 2.145 1.116 1.143.683 1.962 1.394 2.029 1.353a8.19 8.19 0 00-4.154-2.456l-.02-.013zM485.118 238.7c.216.132.442.245.677.338.223.109.494.231.812.352.318.122.676.284 1.096.413.957.341 1.933.625 2.923.852 1.216.269 2.447.463 3.687.582 1.242.103 2.489.125 3.735.068a26.37 26.37 0 003.031-.318c.426-.061.811-.149 1.143-.217.331-.067.629-.142.859-.203.246-.054.488-.127.724-.216a5.215 5.215 0 00-.744.129c-.23.047-.521.108-.859.162-.339.054-.724.135-1.151.183-1 .143-2.007.234-3.017.27-1.234.041-2.47.009-3.701-.094a32.26 32.26 0 01-3.66-.555 28.828 28.828 0 01-2.916-.799c-.419-.121-.778-.263-1.103-.378-.325-.116-.595-.224-.818-.312a5.68 5.68 0 00-.718-.257zM495.774 245.513a11.36 11.36 0 002.659-.676 11.189 11.189 0 002.517-1.069c0-.061-1.164.372-2.592.846-1.427.473-2.597.839-2.584.899z"></path><path fill="#000" d="M505.787 233.816a25.378 25.378 0 01-9.093.135 9.824 9.824 0 00-3.383-.406c-.905.22-1.78.552-2.605.988a10.187 10.187 0 01-9.593-.995 6.613 6.613 0 004.966 3.485 14.67 14.67 0 006.231-.555 16.166 16.166 0 013.694-.744c1.597-.041 3.16.48 4.736.507a8.536 8.536 0 005.176-1.563l-.129-.852zM500.591 244.234a8.392 8.392 0 01-6.387 4.06 4.132 4.132 0 01-1.684-.136 2.082 2.082 0 01-1.272-1.062 6.024 6.024 0 011.982-.818l7.287-1.996" opacity=".3"></path><path fill="#EB996E" d="M504.556 223.613c-.177.218-.374.42-.589.602-.392.379-.96.92-1.63 1.61-.67.69-1.468 1.543-2.443 2.388-.974.846-2.083 1.719-3.254 2.626a33.098 33.098 0 0 1-3.457 2.367 16.611 16.611 0 0 1-3.112 1.442c-.731.248-1.483.431-2.246.548a3.63 3.63 0 0 1-.839.047c1.017-.215 2.02-.49 3.004-.825 1.054-.402 2.068-.9 3.031-1.489a36.34 36.34 0 0 0 3.382-2.368c1.171-.906 2.287-1.766 3.255-2.591.967-.826 1.779-1.644 2.483-2.321a30.605 30.605 0 0 1 1.718-1.536c.211-.195.445-.363.697-.5z"></path></svg> 